<svg width="125" height="125" viewBox="0 0 125 125" fill="none" xmlns="http://www.w3.org/2000/svg">
<rect width="125" height="125" rx="25" fill="#30244C"/>
<path opacity="0.5" d="M57.2917 49.0833H21.7084C19.688 49.0894 17.752 49.8947 16.3234 51.3233C14.8947 52.752 14.0894 54.6879 14.0834 56.7083V79.2275L23.945 69.3658C25.3981 67.9828 27.3273 67.2115 29.3334 67.2115C31.3394 67.2115 33.2686 67.9828 34.7217 69.3658L42.0188 76.7036L44.2758 74.4466C45.7084 73.0221 47.6465 72.2225 49.6667 72.2225C51.6869 72.2225 53.6251 73.0221 55.0576 74.4466L64.9167 84.3108V56.7083C64.9107 54.6879 64.1054 52.752 62.6767 51.3233C61.2481 49.8947 59.3121 49.0894 57.2917 49.0833Z" fill="#FF006B"/>
<path d="M34.7217 69.3659C33.2686 67.9828 31.3394 67.2115 29.3334 67.2115C27.3273 67.2115 25.3981 67.9828 23.945 69.3659L14.0834 79.2275V92.2917C14.0894 94.3121 14.8947 96.2481 16.3234 97.6767C17.752 99.1054 19.688 99.9107 21.7084 99.9167H57.2917C59.3632 99.9167 61.3457 99.0703 62.7817 97.5784L34.7217 69.3659Z" fill="#FF006B"/>
<path opacity="0.25" d="M64.9169 84.3057L55.0578 74.4466C53.6253 73.0221 51.6872 72.2225 49.6669 72.2225C47.6467 72.2225 45.7086 73.0221 44.276 74.4466L42.019 76.7036L62.7717 97.5682C64.1493 96.1575 64.9195 94.264 64.9169 92.2917V84.3057Z" fill="#FF006B"/>
<path opacity="0.5" d="M80.0001 18.8333C78.1576 18.7666 76.3206 19.0733 74.5997 19.7348C72.8787 20.3963 71.3094 21.3991 69.986 22.6828C68.6626 23.9665 67.6125 25.5046 66.8989 27.2046C66.1852 28.9046 65.8228 30.7313 65.8334 32.575C65.8088 34.4882 66.1929 36.3847 66.9601 38.1376C67.7272 39.8905 68.8596 41.4594 70.2817 42.7396C70.3965 42.8415 70.4895 42.9656 70.5552 43.1044C70.621 43.2431 70.658 43.3937 70.6642 43.5471L70.7421 46.0673C70.7481 46.2527 70.7994 46.4338 70.8915 46.5947C70.9837 46.7557 71.1139 46.8916 71.2707 46.9906C71.4276 47.0896 71.6063 47.1486 71.7913 47.1625C71.9762 47.1764 72.1617 47.1447 72.3316 47.0703L75.1423 45.8307C75.3804 45.7253 75.6476 45.7053 75.8988 45.7741C77.2353 46.1385 78.6148 46.321 80.0001 46.3167C81.8418 46.3758 83.6766 46.0641 85.3954 45.4002C87.1143 44.7362 88.6822 43.7335 90.0059 42.4516C91.3296 41.1697 92.3821 39.6349 93.1009 37.9382C93.8197 36.2415 94.1901 34.4176 94.1901 32.575C94.1901 30.7323 93.8197 28.9085 93.1009 27.2118C92.3821 25.5151 91.3296 23.9802 90.0059 22.6984C88.6822 21.4165 87.1143 20.4138 85.3954 19.7498C83.6766 19.0859 81.8418 18.7742 80.0001 18.8333Z" fill="#AD00FF"/>
<path d="M72.207 36.927C71.9376 36.9265 71.674 36.8493 71.447 36.7043C71.22 36.5594 71.039 36.3527 70.9253 36.1086C70.8115 35.8645 70.7697 35.5929 70.8048 35.3259C70.8398 35.0588 70.9503 34.8073 71.1232 34.6008L75.4469 29.4498C75.6645 29.1882 75.9692 29.0141 76.305 28.9594C76.6408 28.9047 76.9851 28.9732 77.2744 29.1523L82.0146 32.065L85.2899 28.1621C85.408 28.0151 85.5543 27.8932 85.7201 27.8035C85.8859 27.7138 86.068 27.6581 86.2556 27.6397C86.4432 27.6213 86.6327 27.6405 86.8128 27.6962C86.9929 27.7519 87.1601 27.843 87.3045 27.9642C87.449 28.0853 87.5678 28.2341 87.654 28.4018C87.7402 28.5694 87.7921 28.7526 87.8066 28.9406C87.8211 29.1286 87.7979 29.3176 87.7384 29.4965C87.679 29.6754 87.5844 29.8406 87.4602 29.9825L83.3986 34.8218C83.1805 35.082 82.876 35.2552 82.5409 35.3098C82.2057 35.3644 81.8621 35.2968 81.5726 35.1193L76.8324 32.2067L73.2936 36.4212C73.1608 36.5803 72.9946 36.7081 72.8068 36.7955C72.6189 36.8829 72.4141 36.9278 72.207 36.927Z" fill="#AD00FF"/>
<path opacity="0.25" d="M78.5001 97.5833H72.8334C72.4577 97.5833 72.0974 97.4341 71.8317 97.1684C71.566 96.9027 71.4167 96.5424 71.4167 96.1667V84.8333C71.4167 84.4576 71.566 84.0973 71.8317 83.8316C72.0974 83.5659 72.4577 83.4167 72.8334 83.4167H78.5001C78.8758 83.4167 79.2361 83.5659 79.5018 83.8316C79.7675 84.0973 79.9167 84.4576 79.9167 84.8333V96.1667C79.9167 96.5424 79.7675 96.9027 79.5018 97.1684C79.2361 97.4341 78.8758 97.5833 78.5001 97.5833Z" fill="#AD00FF"/>
<path d="M89.8333 97.5833H84.1667C83.7909 97.5833 83.4306 97.4341 83.1649 97.1684C82.8993 96.9027 82.75 96.5424 82.75 96.1667V67.8333C82.75 67.4576 82.8993 67.0973 83.1649 66.8316C83.4306 66.5659 83.7909 66.4167 84.1667 66.4167H89.8333C90.2091 66.4167 90.5694 66.5659 90.8351 66.8316C91.1007 67.0973 91.25 67.4576 91.25 67.8333V96.1667C91.25 96.5424 91.1007 96.9027 90.8351 97.1684C90.5694 97.4341 90.2091 97.5833 89.8333 97.5833Z" fill="#AD00FF"/>
<path opacity="0.5" d="M101.167 97.5833H95.4999C95.1242 97.5833 94.7639 97.4341 94.4982 97.1684C94.2325 96.9027 94.0833 96.5424 94.0833 96.1667V79.1667C94.0833 78.7909 94.2325 78.4306 94.4982 78.1649C94.7639 77.8993 95.1242 77.75 95.4999 77.75H101.167C101.542 77.75 101.903 77.8993 102.168 78.1649C102.434 78.4306 102.583 78.7909 102.583 79.1667V96.1667C102.583 96.5424 102.434 96.9027 102.168 97.1684C101.903 97.4341 101.542 97.5833 101.167 97.5833Z" fill="#AD00FF"/>
</svg>
