<svg width="165" height="47" viewBox="0 0 165 47" fill="none" xmlns="http://www.w3.org/2000/svg">
<path d="M144.059 46.2773C132.436 46.2773 127.577 35.2227 123.672 26.34C121.956 22.4347 118.763 15.1667 116.713 15.1667C114.664 15.1667 111.469 22.4347 109.753 26.34C105.849 35.2227 100.992 46.2773 89.368 46.2773C77.744 46.2773 72.8867 35.2227 68.9827 26.34C67.2667 22.4347 64.0733 15.1667 62.0253 15.1667C59.976 15.1667 56.7814 22.4347 55.0654 26.34C51.1627 35.2227 46.3027 46.2773 34.6787 46.2773C23.056 46.2773 18.1973 35.2227 14.292 26.34C12.576 22.4347 9.38267 15.1667 7.33333 15.1667C3.28267 15.1667 0 11.884 0 7.83335C0 3.78402 3.28267 0.500015 7.33333 0.500015C18.956 0.500015 23.816 11.556 27.72 20.4387C29.436 24.3414 32.6294 31.6107 34.6787 31.6107C36.728 31.6107 39.9227 24.3427 41.6387 20.4387C45.5427 11.556 50.4 0.500015 62.0253 0.500015C73.648 0.500015 78.5054 11.556 82.4094 20.4387C84.1254 24.3427 87.32 31.6107 89.368 31.6107C91.416 31.6107 94.6107 24.3427 96.3267 20.4387C100.229 11.556 105.089 0.500015 116.713 0.500015C128.337 0.500015 133.196 11.556 137.1 20.4387C138.816 24.3414 142.009 31.6107 144.059 31.6107C148.111 31.6107 151.392 34.8947 151.392 38.944C151.392 42.9947 148.111 46.2773 144.059 46.2773Z" fill="#FF006B"/>
<path d="M129.69 14.6667C131.884 14.6667 134.557 20.3334 137.108 26.136C140.953 34.888 145.738 45.7773 157.037 45.7773C160.805 45.7773 163.87 42.712 163.87 38.944C163.87 35.1747 160.805 32.1107 157.037 32.1107C154.845 32.1107 152.172 26.448 149.622 20.6467C145.772 11.8867 140.986 1.00002 129.69 1.00002C118.392 1.00002 113.608 11.8894 109.762 20.6374C107.212 26.444 104.537 32.1107 102.344 32.1107C100.154 32.1107 97.4811 26.4467 94.9317 20.6453C91.0837 11.8893 86.2984 1.00002 75.0024 1.00002C63.7064 1.00002 58.921 11.8867 55.0744 20.6347C52.5224 26.444 49.8477 32.1107 47.6571 32.1107C45.4651 32.1107 42.7917 26.448 40.2424 20.6467C36.3917 11.8867 31.6064 1.00002 20.3104 1.00002C16.5424 1.00002 13.4771 4.06401 13.4771 7.83335C13.4771 11.6013 16.5424 14.6667 20.3104 14.6667C22.5037 14.6667 25.1757 20.3334 27.7264 26.136C31.5731 34.888 36.3584 45.7773 47.6571 45.7773C58.9531 45.7773 63.7384 34.888 67.5838 26.1387C70.1358 20.3334 72.809 14.6667 75.0024 14.6667C77.193 14.6667 79.8664 20.3334 82.4171 26.136C86.2638 34.888 91.049 45.7773 102.344 45.7773C113.642 45.7773 118.428 34.888 122.273 26.1387C124.825 20.3334 127.498 14.6667 129.69 14.6667ZM157.037 46.7773C145.085 46.7773 140.154 35.5574 136.192 26.54C134.885 23.5654 131.413 15.6667 129.69 15.6667C127.968 15.6667 124.497 23.5654 123.189 26.5387C119.226 35.5574 114.296 46.7773 102.344 46.7773C90.3944 46.7773 85.4637 35.5574 81.5024 26.5414C80.1944 23.5654 76.7237 15.6667 75.0024 15.6667C73.2797 15.6667 69.8077 23.5654 68.5011 26.5387C64.5384 35.5574 59.6077 46.7773 47.6571 46.7773C35.7051 46.7773 30.7744 35.5574 26.8118 26.54C25.5038 23.5654 22.0331 15.6667 20.3104 15.6667C15.9917 15.6667 12.4771 12.152 12.4771 7.83335C12.4771 3.51335 15.9917 1.52588e-05 20.3104 1.52588e-05C32.2584 1.52588e-05 37.189 11.2187 41.153 20.232C42.4637 23.216 45.9357 31.1107 47.6571 31.1107C49.3797 31.1107 52.8504 23.2107 54.1571 20.2374C58.1224 11.2187 63.0544 1.52588e-05 75.0024 1.52588e-05C86.9504 1.52588e-05 91.8824 11.22 95.8437 20.2347C97.1544 23.2147 100.622 31.1107 102.344 31.1107C104.068 31.1107 107.54 23.2107 108.845 20.2374C112.809 11.22 117.74 1.52588e-05 129.69 1.52588e-05C141.638 1.52588e-05 146.569 11.2187 150.533 20.232C151.844 23.216 155.316 31.1107 157.037 31.1107C161.356 31.1107 164.87 34.624 164.87 38.944C164.87 43.2627 161.356 46.7773 157.037 46.7773Z" fill="#AD00FF"/>
</svg>
