<svg width="125" height="125" viewBox="0 0 125 125" fill="none" xmlns="http://www.w3.org/2000/svg">
<rect width="125" height="125" rx="25" fill="#30244C"/>
<path opacity="0.5" d="M102.625 83.6667H90.9583C90.5716 83.6667 90.2006 83.513 89.9271 83.2395C89.6536 82.966 89.5 82.5951 89.5 82.2083C89.5 81.8216 89.6536 81.4506 89.9271 81.1771C90.2006 80.9036 90.5716 80.75 90.9583 80.75H102.625C103.012 80.75 103.383 80.9036 103.656 81.1771C103.93 81.4506 104.083 81.8216 104.083 82.2083C104.083 82.5951 103.93 82.966 103.656 83.2395C103.383 83.513 103.012 83.6667 102.625 83.6667ZM102.625 89.5H90.9583C90.5716 89.5 90.2006 89.3464 89.9271 89.0729C89.6536 88.7994 89.5 88.4284 89.5 88.0417C89.5 87.6549 89.6536 87.284 89.9271 87.0105C90.2006 86.737 90.5716 86.5833 90.9583 86.5833H102.625C103.012 86.5833 103.383 86.737 103.656 87.0105C103.93 87.284 104.083 87.6549 104.083 88.0417C104.083 88.4284 103.93 88.7994 103.656 89.0729C103.383 89.3464 103.012 89.5 102.625 89.5Z" fill="#AD00FF"/>
<path d="M85.125 77.8333H76.375C75.5695 77.8333 74.9166 78.4863 74.9166 79.2917V88.0417C74.9166 88.8471 75.5695 89.5 76.375 89.5H85.125C85.9304 89.5 86.5833 88.8471 86.5833 88.0417V79.2917C86.5833 78.4863 85.9304 77.8333 85.125 77.8333Z" fill="#AD00FF"/>
<path opacity="0.5" d="M102.625 95.3333H76.375C75.9882 95.3333 75.6173 95.1797 75.3438 94.9062C75.0703 94.6327 74.9166 94.2618 74.9166 93.875C74.9166 93.4882 75.0703 93.1173 75.3438 92.8438C75.6173 92.5703 75.9882 92.4167 76.375 92.4167H102.625C103.012 92.4167 103.383 92.5703 103.656 92.8438C103.93 93.1173 104.083 93.4882 104.083 93.875C104.083 94.2618 103.93 94.6327 103.656 94.9062C103.383 95.1797 103.012 95.3333 102.625 95.3333ZM90.9583 101.167H76.375C75.9882 101.167 75.6173 101.013 75.3438 100.74C75.0703 100.466 74.9166 100.095 74.9166 99.7083C74.9166 99.3215 75.0703 98.9506 75.3438 98.6771C75.6173 98.4036 75.9882 98.25 76.375 98.25H90.9583C91.3451 98.25 91.716 98.4036 91.9895 98.6771C92.263 98.9506 92.4166 99.3215 92.4166 99.7083C92.4166 100.095 92.263 100.466 91.9895 100.74C91.716 101.013 91.3451 101.167 90.9583 101.167Z" fill="#AD00FF"/>
<path opacity="0.25" d="M66.9167 73.4167H36.4167V50.1667H31.3334V101.833H36.4167V78.5834H66.9167V73.4167Z" fill="#FF006B"/>
<path d="M18.625 50.1667H31.3334V101.833H18.625C17.9509 101.833 17.3045 101.561 16.8278 101.077C16.3512 100.592 16.0834 99.9352 16.0834 99.25V52.75C16.0834 52.0649 16.3512 51.4078 16.8278 50.9233C17.3045 50.4389 17.9509 50.1667 18.625 50.1667Z" fill="#FF006B"/>
<path opacity="0.5" d="M36.4166 50.1667H64.375C65.0491 50.1667 65.6955 50.4389 66.1722 50.9233C66.6488 51.4078 66.9166 52.0649 66.9166 52.75V73.4167H36.4166V50.1667ZM36.4166 78.5834H66.9166V99.25C66.9166 99.9352 66.6488 100.592 66.1722 101.077C65.6955 101.561 65.0491 101.833 64.375 101.833H36.4166V78.5834Z" fill="#FF006B"/>
<path d="M79.2916 31.3333C78.4263 31.3333 77.5805 31.0841 76.861 30.6171C76.1415 30.1501 75.5808 29.4863 75.2497 28.7098C74.9185 27.9332 74.8319 27.0786 75.0007 26.2542C75.1695 25.4298 75.5862 24.6725 76.198 24.0781C76.8099 23.4838 77.5894 23.079 78.4381 22.915C79.2868 22.751 80.1664 22.8352 80.9659 23.1569C81.7653 23.4785 82.4486 24.0233 82.9293 24.7222C83.41 25.4211 83.6666 26.2428 83.6666 27.0833C83.6655 28.2102 83.2042 29.2905 82.3839 30.0873C81.5637 30.8841 80.4516 31.3322 79.2916 31.3333ZM79.2916 25.6667C79.0032 25.6667 78.7212 25.7498 78.4814 25.9054C78.2416 26.0611 78.0547 26.2823 77.9443 26.5412C77.8339 26.8001 77.805 27.0849 77.8613 27.3597C77.9176 27.6345 78.0565 27.887 78.2604 28.0851C78.4644 28.2832 78.7242 28.4181 79.0071 28.4728C79.29 28.5275 79.5832 28.4994 79.8497 28.3922C80.1162 28.285 80.3439 28.1034 80.5042 27.8704C80.6644 27.6374 80.75 27.3635 80.75 27.0833C80.7496 26.7077 80.5958 26.3476 80.3224 26.082C80.049 25.8164 79.6783 25.6671 79.2916 25.6667ZM99.7083 31.3333C98.843 31.3333 97.9971 31.0841 97.2777 30.6171C96.5582 30.1501 95.9975 29.4863 95.6663 28.7098C95.3352 27.9332 95.2485 27.0786 95.4174 26.2542C95.5862 25.4298 96.0028 24.6725 96.6147 24.0781C97.2266 23.4838 98.0061 23.079 98.8548 22.915C99.7034 22.751 100.583 22.8352 101.383 23.1569C102.182 23.4785 102.865 24.0233 103.346 24.7222C103.827 25.4211 104.083 26.2428 104.083 27.0833C104.082 28.2102 103.621 29.2905 102.801 30.0873C101.98 30.8841 100.868 31.3322 99.7083 31.3333ZM99.7083 25.6667C99.4199 25.6667 99.1379 25.7498 98.8981 25.9054C98.6583 26.0611 98.4713 26.2823 98.361 26.5412C98.2506 26.8001 98.2217 27.0849 98.278 27.3597C98.3343 27.6345 98.4731 27.887 98.6771 28.0851C98.881 28.2832 99.1409 28.4181 99.4238 28.4728C99.7067 28.5275 99.9999 28.4994 100.266 28.3922C100.533 28.285 100.761 28.1034 100.921 27.8704C101.081 27.6374 101.167 27.3635 101.167 27.0833C101.166 26.7077 101.012 26.3476 100.739 26.082C100.466 25.8164 100.095 25.6671 99.7083 25.6667ZM79.2916 51.1667C78.4263 51.1667 77.5805 50.9174 76.861 50.4504C76.1415 49.9834 75.5808 49.3197 75.2497 48.5431C74.9185 47.7665 74.8319 46.912 75.0007 46.0875C75.1695 45.2631 75.5862 44.5058 76.198 43.9115C76.8099 43.3171 77.5894 42.9123 78.4381 42.7483C79.2868 42.5844 80.1664 42.6685 80.9659 42.9902C81.7653 43.3119 82.4486 43.8566 82.9293 44.5555C83.41 45.2544 83.6666 46.0761 83.6666 46.9167C83.6655 48.0435 83.2042 49.1239 82.3839 49.9206C81.5637 50.7174 80.4516 51.1656 79.2916 51.1667ZM79.2916 45.5C79.0032 45.5 78.7212 45.5831 78.4814 45.7388C78.2416 45.8944 78.0547 46.1157 77.9443 46.3745C77.8339 46.6334 77.805 46.9183 77.8613 47.1931C77.9176 47.4679 78.0565 47.7203 78.2604 47.9184C78.4644 48.1165 78.7242 48.2515 79.0071 48.3061C79.29 48.3608 79.5832 48.3327 79.8497 48.2255C80.1162 48.1183 80.3439 47.9367 80.5042 47.7037C80.6644 47.4708 80.75 47.1969 80.75 46.9167C80.7496 46.5411 80.5958 46.181 80.3224 45.9154C80.049 45.6498 79.6783 45.5004 79.2916 45.5ZM99.7083 51.1667C98.843 51.1667 97.9971 50.9174 97.2777 50.4504C96.5582 49.9834 95.9975 49.3197 95.6663 48.5431C95.3352 47.7665 95.2485 46.912 95.4174 46.0875C95.5862 45.2631 96.0028 44.5058 96.6147 43.9115C97.2266 43.3171 98.0061 42.9123 98.8548 42.7483C99.7034 42.5844 100.583 42.6685 101.383 42.9902C102.182 43.3119 102.865 43.8566 103.346 44.5555C103.827 45.2544 104.083 46.0761 104.083 46.9167C104.082 48.0435 103.621 49.1239 102.801 49.9206C101.98 50.7174 100.868 51.1656 99.7083 51.1667ZM99.7083 45.5C99.4199 45.5 99.1379 45.5831 98.8981 45.7388C98.6583 45.8944 98.4713 46.1157 98.361 46.3745C98.2506 46.6334 98.2217 46.9183 98.278 47.1931C98.3343 47.4679 98.4731 47.7203 98.6771 47.9184C98.881 48.1165 99.1409 48.2515 99.4238 48.3061C99.7067 48.3608 99.9999 48.3327 100.266 48.2255C100.533 48.1183 100.761 47.9367 100.921 47.7037C101.081 47.4708 101.167 47.1969 101.167 46.9167C101.166 46.5411 101.012 46.181 100.739 45.9154C100.466 45.6498 100.095 45.5004 99.7083 45.5Z" fill="#AD00FF"/>
<path opacity="0.5" d="M95.6017 48.3333C95.2433 47.421 95.2433 46.4123 95.6017 45.5H83.3984C83.7566 46.4124 83.7566 47.4209 83.3984 48.3333H95.6017ZM99.7084 31.3333C99.2104 31.3287 98.7171 31.2405 98.25 31.0727V42.9273C99.1893 42.5793 100.227 42.5793 101.167 42.9273V31.0727C100.7 31.2405 100.206 31.3287 99.7084 31.3333ZM83.3984 25.6667C83.5711 26.1203 83.6619 26.5996 83.6667 27.0833C83.6619 27.567 83.5711 28.0463 83.3984 28.5H95.6017C95.429 28.0463 95.3382 27.567 95.3334 27.0833C95.3382 26.5996 95.429 26.1203 95.6017 25.6667H83.3984ZM79.2917 42.6667C79.7896 42.6713 80.283 42.7595 80.75 42.9273V31.0727C80.283 31.2405 79.7896 31.3287 79.2917 31.3333C78.7938 31.3287 78.3004 31.2405 77.8334 31.0727V42.9273C78.3004 42.7595 78.7938 42.6713 79.2917 42.6667Z" fill="#AD00FF"/>
</svg>
