<svg width="125" height="125" viewBox="0 0 125 125" fill="none" xmlns="http://www.w3.org/2000/svg">
<rect width="125" height="125" rx="25" fill="#30244C"/>
<path opacity="0.25" d="M72.8334 76.3333H101.167V79.1667H72.8334V76.3333Z" fill="#AD00FF"/>
<path d="M74.25 67.8333H99.75C100.126 67.8333 100.486 67.9826 100.752 68.2483C101.017 68.514 101.167 68.8743 101.167 69.25V76.3333H72.8334V69.25C72.8334 68.8743 72.9826 68.514 73.2483 68.2483C73.514 67.9826 73.8743 67.8333 74.25 67.8333Z" fill="#AD00FF"/>
<path opacity="0.5" d="M72.8334 79.1667H101.167V94.75C101.167 95.1257 101.017 95.4861 100.752 95.7517C100.486 96.0174 100.126 96.1667 99.75 96.1667H74.25C73.8743 96.1667 73.514 96.0174 73.2483 95.7517C72.9826 95.4861 72.8334 95.1257 72.8334 94.75V79.1667Z" fill="#AD00FF"/>
<path opacity="0.5" d="M58.2917 52.75H22.7084C18.4972 52.75 15.0834 56.2198 15.0834 60.5V83.75C15.0834 88.0302 18.4972 91.5 22.7084 91.5H58.2917C62.5029 91.5 65.9167 88.0302 65.9167 83.75V60.5C65.9167 56.2198 62.5029 52.75 58.2917 52.75Z" fill="#FF006B"/>
<path d="M50.6669 99.25H30.3336C29.8734 99.2501 29.4219 99.1232 29.0271 98.8828C28.6324 98.6425 28.3092 98.2978 28.0921 97.8854C27.875 97.473 27.7722 97.0085 27.7945 96.5413C27.8168 96.0742 27.9635 95.622 28.2189 95.2329L38.3856 79.7329C38.6311 79.3983 38.9502 79.1266 39.3173 78.9394C39.6844 78.7522 40.0895 78.6548 40.5002 78.6548C40.9109 78.6548 41.316 78.7522 41.6831 78.9394C42.0502 79.1266 42.3693 79.3983 42.6149 79.7329L52.7816 95.2329C53.0369 95.622 53.1836 96.0742 53.2059 96.5413C53.2283 97.0085 53.1254 97.473 52.9083 97.8854C52.6912 98.2978 52.3681 98.6425 51.9733 98.8828C51.5786 99.1232 51.127 99.2501 50.6669 99.25Z" fill="#FF006B"/>
<path d="M67.9384 36.1762L60.95 41.6233L57.9014 40.1046V25.9082L60.9387 24.3782L67.8804 29.8366L78.8695 18.8333L86.1001 21.7134V44.2384L78.9063 47.1667L67.9384 36.1762ZM78.6527 38.0915V27.9085L72.0723 33.0057L78.6527 38.0915ZM61.1895 36.2598L64.6489 33.1148L61.1895 29.668V36.2598Z" fill="#AD00FF"/>
</svg>
